<svg xmlns="http://www.w3.org/2000/svg" width="24" height="24" viewBox="0 0 24 24" fill="none">
    <style>
:root {
  --primary: #14596B;
}

@media (prefers-color-scheme: dark) {
  :root {
    --primary: #D2B863;
  }
}
    </style>
    <path fill-rule="evenodd" clip-rule="evenodd" d="M6.04526 0H7.75957V1.71428L9.47065 1.71439L9.47114 13.7183L9.47284 13.7294V13.7154H11.1812L11.1827 13.7137L11.1812 11.9994H12.8955L12.8978 12.0016V10.2863H14.6121L14.6143 10.2903V3.42878L14.6152 3.4276L14.6121 3.42866H12.8978V1.71439H14.6121L14.6152 1.71757L14.6143 1.71428V0H18.0424V1.71428L19.7543 1.7146V20.572H21.4645V22.2863L18.0424 22.287V24H16.3281V22.2863H14.6143V13.7097L14.6121 13.7137H12.8978V13.7108L12.8955 13.7137V15.4294H11.1871V17.1437H9.47284H9.47114V22.287H7.75957V24H6.04526V22.2871H4.33177V5.15165L2.61766 5.15136V3.42878H4.33177V1.71467H6.04526V0Z" fill="var(--primary)"/>
    <path d="M23.1811 18.8488H21.4668V20.5631H23.1811V18.8488Z" fill="var(--primary)"/>
    <path d="M2.61274 5.15206H0.898438V6.86633H2.61274V5.15206Z" fill="var(--primary)"/>
    <path d="M12.8955 3.42878H11.1812V5.15136H12.8955V3.42878Z" fill="var(--primary)"/>
</svg>