<svg id="be454bab-2889-49bf-9d82-a1b13c4d4a30" data-name="Layer 1" xmlns="http://www.w3.org/2000/svg" width="646" height="478.40178" viewBox="0 0 646 478.40178"><path d="M316.87008,687.76388a37,37,0,0,1,74,0" transform="translate(-277 -210.79911)" fill="#f2f2f2"/><path d="M353.87008,687.76388a1,1,0,0,1-1-1v-19.5a1,1,0,0,1,2,0v19.5A1.00005,1.00005,0,0,1,353.87008,687.76388Z" transform="translate(-277 -210.79911)" fill="#ccc"/><path d="M353.86959,681.0632a.99544.99544,0,0,1-.65088-.24121l-11.99988-10.29932a1,1,0,1,1,1.30262-1.51758l12,10.29932a1,1,0,0,1-.65186,1.75879Z" transform="translate(-277 -210.79911)" fill="#ccc"/><path d="M430.87008,687.76388a37,37,0,0,1,74,0" transform="translate(-277 -210.79911)" fill="#f2f2f2"/><path d="M467.87008,687.76388a1,1,0,0,1-1-1v-19.5a1,1,0,0,1,2,0v19.5A1.00005,1.00005,0,0,1,467.87008,687.76388Z" transform="translate(-277 -210.79911)" fill="#ccc"/><path d="M467.86959,681.0632a.99544.99544,0,0,1-.65088-.24121l-12-10.29932a1,1,0,0,1,1.30274-1.51758l12,10.29932a1,1,0,0,1-.65186,1.75879Z" transform="translate(-277 -210.79911)" fill="#ccc"/><circle cx="230.87008" cy="159.40178" r="15" fill="#fff"/><path d="M507.87008,355.20089a15,15,0,1,0,15,15A15,15,0,0,0,507.87008,355.20089Zm-3.59155,21.5493a.42255.42255,0,0,1-.42254.42253h-3.38028a.42255.42255,0,0,1-.42253-.42253V368.722a.42254.42254,0,0,1,.42253-.42254H503.856a.42254.42254,0,0,1,.42254.42254Zm11.40845-6.338a1.26764,1.26764,0,0,1-1.26761,1.2676v.0213a1.05639,1.05639,0,0,1,0,2.07008v.44383a.84507.84507,0,0,1,0,1.69014h-8.4507a.42255.42255,0,0,1-.42253-.42253V368.722c0-2.11268,3.38028-5.07043,3.38028-5.07043v-1.03008a1.27867,1.27867,0,0,1,2.522-.3l.01321.06252a6.4007,6.4007,0,0,1-1.02642,4.237h2.60123c.03858-.00353.07582-.01163.11533-.01163h1.2676a2.83446,2.83446,0,0,0,1.26761,3.80282Z" transform="translate(-277 -210.79911)" fill="#5e90ff"/><circle cx="252.87008" cy="72.40178" r="21" fill="#fff"/><path d="M529.87008,262.20089a21,21,0,1,0,21,21A21,21,0,0,0,529.87008,262.20089Zm-5.02817,30.169a.59158.59158,0,0,1-.59155.59155H519.518a.59158.59158,0,0,1-.59155-.59155V281.13047a.59156.59156,0,0,1,.59155-.59155h4.73239a.59156.59156,0,0,1,.59155.59155Zm15.97183-8.87324a1.77468,1.77468,0,0,1-1.77465,1.77465v.02982a1.47895,1.47895,0,0,1,0,2.89811v.62137a1.18309,1.18309,0,1,1,0,2.36619h-11.831a.59157.59157,0,0,1-.59155-.59154v-9.46479c0-2.95775,4.73239-7.09859,4.73239-7.09859v-1.44212a1.79014,1.79014,0,0,1,3.53081-.42005q.00954.04316.01849.08752c.59155,2.95774-1.437,5.93177-1.437,5.93177H537.103c.054-.00494.10615-.01628.16146-.01628h1.77465a1.77465,1.77465,0,0,1,0,3.5493A1.77468,1.77468,0,0,1,540.81374,283.49666Z" transform="translate(-277 -210.79911)" fill="#5e90ff"/><path d="M576.62272,508.39883a10.74273,10.74273,0,0,0,7.44458-14.69442l39.60233-89.47207-22.65457-5.706-31.80418,89.74234a10.80091,10.80091,0,0,0,7.41184,20.13012Z" transform="translate(-277 -210.79911)" fill="#a0616a"/><path d="M612.30861,432.23386l-22.03343-10.31357a4.81687,4.81687,0,0,1-1.97428-7.02163l13.39047-20.2227a13.37737,13.37737,0,0,1,24.198,11.41337l-6.92414,23.16293a4.81687,4.81687,0,0,1-6.65667,2.9816Z" transform="translate(-277 -210.79911)" fill="#6c63ff"/><path d="M535.70222,420.72728l24.29167,17.19824a1.82333,1.82333,0,0,0,2.141,0l6.56406-4.92891a1.79973,1.79973,0,0,0,.1176-2.8115l-18.69223-16.66887a1.84681,1.84681,0,0,0-1.82333-.35289l-12.1635,4.35248a1.8351,1.8351,0,0,0-.43524,3.21145Z" transform="translate(-277 -210.79911)" fill="#3f3d56"/><path d="M537.91013,419.4006l21.89136,15.499a.64325.64325,0,0,0,.76464.00684l5.90357-4.43262a.627.627,0,0,0,.14453-.87793.63706.63706,0,0,0-.092-.09961l-16.85986-15.03515a.65638.65638,0,0,0-.64844-.12012L538.05783,418.261a.654.654,0,0,0-.1477,1.13965Z" transform="translate(-277 -210.79911)" fill="#fff"/><polygon points="347.236 466.333 334.976 466.332 329.144 419.044 347.238 419.045 347.236 466.333" fill="#a0616a"/><path d="M627.36256,689.01622l-39.53052-.00146v-.5a15.38605,15.38605,0,0,1,15.38648-15.38623h.001l24.1438.001Z" transform="translate(-277 -210.79911)" fill="#2f2e41"/><polygon points="388.236 466.333 375.976 466.332 370.144 419.044 388.238 419.045 388.236 466.333" fill="#a0616a"/><path d="M668.36256,689.01622l-39.53052-.00146v-.5a15.38605,15.38605,0,0,1,15.38648-15.38623h.001l24.1438.001Z" transform="translate(-277 -210.79911)" fill="#2f2e41"/><path d="M664.67526,663.97677q-.16662,0-.33349-.01172l-14.09888-1.04394a4.52724,4.52724,0,0,1-4.06445-3.53028l-24.48-134.37207a1.5,1.5,0,0,0-2.96094.4375l8.69214,132.39258a4.49975,4.49975,0,0,1-4.48608,4.85254H612.20749a4.5001,4.5001,0,0,1-4.19238-2.86035c-27.00025-70.70606-17.22267-209.24659-17.145-210.64014l1-1h0l53.77784,9.28565.11376.11035c18.37451,13.49642,26.32666,171.54988,23.40479,201.61621a5.38655,5.38655,0,0,1-1.32934,3.46777A4.50444,4.50444,0,0,1,664.67526,663.97677Z" transform="translate(-277 -210.79911)" fill="#2f2e41"/><circle cx="320.07405" cy="131.79615" r="24.56103" fill="#a0616a"/><path d="M653.40378,480.30392a3.73354,3.73354,0,0,1-.74438-.07494l-63.07813-8.09415c-2.25854-.45553-3.86987-2.86547-3.74805-5.608l6.03686-33.326c-8-10-.44067-35.82569,4.44752-42.35524l-1.89038-5.11615a6.35021,6.35021,0,0,1-.084-4.129,5.06472,5.06472,0,0,1,2.37549-2.98959l25.59961-13.60128c2.26953-1.20614,4.93213.0281,5.93726,2.74836l5.02,13.58606-.07691.03981c12.02051,6.4429,22.67138,12.817,14.67138,46.817l10.02979,46.95644a5.82064,5.82064,0,0,1-1.66845,3.94865A4.07217,4.07217,0,0,1,653.40378,480.30392Z" transform="translate(-277 -210.79911)" fill="#6c63ff"/><path d="M564.4032,425.25408a10.52623,10.52623,0,0,1,1.11411,1.22722l49.47526-3.41877,5.30763-10.8159,17.37,5.87671-7.53534,20.06054a8,8,0,0,1-8.094,5.164l-56.26-4.26654a10.4971,10.4971,0,1,1-1.37766-13.82724Z" transform="translate(-277 -210.79911)" fill="#a0616a"/><path d="M614.09947,420.67779a4.49515,4.49515,0,0,1,.146-3.74422l10.20236-20.1498a12.49742,12.49742,0,0,1,23.73806,7.82569l-3.92951,22.31536a4.5,4.5,0,0,1-5.85316,3.48894l-21.56391-7.17907A4.495,4.495,0,0,1,614.09947,420.67779Z" transform="translate(-277 -210.79911)" fill="#6c63ff"/><path d="M536.88546,404.22522a1.09679,1.09679,0,0,1-1.4953,0l-.574-.51915c-4.69793-4.3104-7.41066-7.11087-7.41066-10.60233,0-2.848,1.80239-5.0489,4.62847-5.0489a5.40356,5.40356,0,0,1,4.10565,1.9267,5.39618,5.39618,0,0,1,4.102-1.9267c2.82973,0,4.62846,2.19359,4.62846,5.0489,0,3.48415-2.71273,6.28463-7.41067,10.60233Z" transform="translate(-277 -210.79911)" fill="#ff6584"/><path d="M502.57043,344.49758a2.10161,2.10161,0,0,1-2.86521,0l-1.09985-.99477c-9.00189-8.25933-14.19986-13.62544-14.19986-20.31555,0-5.45719,3.45364-9.67441,8.86879-9.67441a10.354,10.354,0,0,1,7.867,3.69182,10.33987,10.33987,0,0,1,7.86-3.69182c5.42214,0,8.86877,4.20322,8.86877,9.67441,0,6.67611-5.198,12.04222-14.19989,20.31555Z" transform="translate(-277 -210.79911)" fill="#ff6584"/><path d="M503.99854,251.0428a2.72962,2.72962,0,0,1-3.72141,0l-1.4285-1.292c-11.69188-10.72741-18.44312-17.697-18.44312-26.38632,0-7.08791,4.48567-12.56534,11.519-12.56534a13.44793,13.44793,0,0,1,10.21785,4.795,13.42966,13.42966,0,0,1,10.20875-4.795c7.04241,0,11.519,5.45924,11.519,12.56534,0,8.67109-6.75124,15.64072-18.44314,26.38632Z" transform="translate(-277 -210.79911)" fill="#ff6584"/><path d="M922,689.20089H278a1,1,0,0,1,0-2H922a1,1,0,0,1,0,2Z" transform="translate(-277 -210.79911)" fill="#ccc"/><circle cx="333.87008" cy="92.40178" r="20" fill="#2f2e41"/><path d="M573.82322,345.63161c-1.95377.20644-4.03164.39219-5.78953-.48513a6.87559,6.87559,0,0,1-3.43723-5.18648c-3.72638-24.75911,17.32685-22.72253,19.81721-23.79484,1.67419-.72088,2.90715-2.17176,4.40322-3.21307,3.272-2.27736,7.51718-2.44387,11.50274-2.52982,4.7316-.10205,9.63475-.17228,13.97751,1.7089a20.93686,20.93686,0,0,1,9.29078,8.56369,43.23974,43.23974,0,0,1,4.60677,11.93321c1.20394,4.78691,2.02295,9.85054.78346,14.62837A18.09,18.09,0,0,1,612.559,360.41466c1.61623-5.70643-1.9109-12.03248-7.14316-14.82512a20.64186,20.64186,0,0,0-13.61665-1.62139,59.9399,59.9399,0,0,1-9.03215,1.1248C579.7892,345.20441,576.2137,345.379,573.82322,345.63161Z" transform="translate(-277 -210.79911)" fill="#2f2e41"/><path d="M894.61178,422.55537c0-48.26367-39.15191-162.791-87.44824-162.791s-87.44825,114.52731-87.44825,162.791a87.44827,87.44827,0,0,0,174.89649,0Z" transform="translate(-277 -210.79911)" fill="#f2f2f2"/><path d="M807.16354,688.20089a1,1,0,0,1-1-1V411.06026a1,1,0,1,1,2,0V687.20089A1.00005,1.00005,0,0,1,807.16354,688.20089Z" transform="translate(-277 -210.79911)" fill="#ccc"/><path d="M807.164,449.20089a.99768.99768,0,0,1-.7561-.34473l-50.29346-58a1.00017,1.00017,0,0,1,1.51123-1.31054l50.29346,58a1.00027,1.00027,0,0,1-.75513,1.65527Z" transform="translate(-277 -210.79911)" fill="#ccc"/><path d="M807.16354,482.67355a1,1,0,0,1-.707-1.707l28.57764-28.57812a.99989.99989,0,1,1,1.41406,1.41406l-28.57763,28.57813A.99636.99636,0,0,1,807.16354,482.67355Z" transform="translate(-277 -210.79911)" fill="#ccc"/><path d="M807.16354,592.67355a1,1,0,0,1-.707-1.707l28.57764-28.57812a.99989.99989,0,0,1,1.41406,1.41406l-28.57763,28.57813A.99636.99636,0,0,1,807.16354,592.67355Z" transform="translate(-277 -210.79911)" fill="#ccc"/></svg>