<svg xmlns="http://www.w3.org/2000/svg" viewBox="0 0 1440 320"><path fill="#fff" fill-opacity="1" d="M0,160L34.3,170.7C68.6,181,137,203,206,202.7C274.3,203,343,181,411,154.7C480,128,549,96,617,112C685.7,128,754,192,823,213.3C891.4,235,960,213,1029,197.3C1097.1,181,1166,171,1234,170.7C1302.9,171,1371,181,1406,186.7L1440,192L1440,320L1405.7,320C1371.4,320,1303,320,1234,320C1165.7,320,1097,320,1029,320C960,320,891,320,823,320C754.3,320,686,320,617,320C548.6,320,480,320,411,320C342.9,320,274,320,206,320C137.1,320,69,320,34,320L0,320Z"></path></svg>
