<svg xmlns="http://www.w3.org/2000/svg" viewBox="0 0 144 144"><path d="M133.57 0H10.855C4.99 0 0 4.64 0 10.36v123.274C0 139.357 4.99 144 10.855 144H133.57c5.876 0 10.43-4.643 10.43-10.366V10.36C144 4.64 139.446 0 133.57 0z" fill="#0077b5"/><path d="M20 54h22v70H20V54zM56 54h21v10.125C79.7 58.718 87.673 53 98.062 53 117.975 53 124 63 124 84.375V124h-22V89.637c0-11.25-2.25-17.887-10.463-17.887C80.437 71.75 78 80.67 78 89.637V124H56V54z" fill="#FFF"/><circle cx="31" cy="31" r="13" fill="#FFF"/></svg>