<svg width="114" height="114" viewBox="0 0 114 114" fill="none" xmlns="http://www.w3.org/2000/svg">
<g clip-path="url(#clip0)">
<path d="M19.7302 61.6992H0.609009V52.3007H19.7302C19.5376 53.8421 19.406 55.4069 19.406 57C19.406 58.593 19.5376 60.1579 19.7302 61.6992ZM33.9878 27.3383L20.4492 13.7998L13.8045 20.4445L27.343 33.9831C29.2744 31.4972 31.5019 29.2697 33.9878 27.3383ZM86.6616 33.9831L100.2 20.4445L93.5554 13.7998L80.0169 27.3383C82.4981 29.2697 84.7256 31.5019 86.6616 33.9831ZM57 19.406C58.593 19.406 60.1579 19.5376 61.6992 19.7302V0.609009H52.3007V19.7302C53.8421 19.5376 55.4069 19.406 57 19.406ZM57 94.594C55.4069 94.594 53.8421 94.4624 52.3007 94.2697V113.391H61.6992V94.2697C60.1579 94.4624 58.593 94.594 57 94.594ZM94.2697 52.3007C94.4624 53.8421 94.594 55.4069 94.594 57C94.594 58.593 94.4624 60.1579 94.2697 61.6992H113.391V52.3007H94.2697ZM80.0169 86.6616L93.5507 100.195L100.2 93.5507L86.6663 80.0169C84.7303 82.4981 82.5028 84.7256 80.0169 86.6616ZM27.3383 80.0122L13.8045 93.546L20.4492 100.191L33.9831 86.657C31.5019 84.7256 29.2697 82.4981 27.3383 80.0122ZM38.203 57C38.203 67.3665 46.6334 75.797 57 75.797C67.3665 75.797 75.797 67.3665 75.797 57C75.797 46.6334 67.3665 38.203 57 38.203C46.6334 38.203 38.203 46.6334 38.203 57ZM85.1955 57C85.1955 72.5733 72.5733 85.1955 57 85.1955C41.4267 85.1955 28.8045 72.5733 28.8045 57C28.8045 41.4267 41.4267 28.8045 57 28.8045C72.5733 28.8045 85.1955 41.4267 85.1955 57Z" fill="white"/>
</g>
<defs>
<clipPath id="clip0">
<rect width="112.782" height="112.782" fill="white" transform="translate(0.609009 0.609009)"/>
</clipPath>
</defs>
</svg>
