<svg width="114" height="114" viewBox="0 0 114 114" fill="none" xmlns="http://www.w3.org/2000/svg">
<g clip-path="url(#clip0)">
<path d="M96.577 40.6278C95.7406 25.4352 82.3336 13.4756 66.3515 14.8196C61.2434 8.9972 53.6964 5.30829 45.2519 5.30829C30.3458 5.30829 18.2124 16.7885 17.4229 31.2293C7.86935 32.9164 0.609009 41.1213 0.609009 50.9944C0.609009 62.094 9.76784 71.0977 21.0695 71.0977H27.3007C30.9239 76.7274 37.2819 80.4962 44.5658 80.4962H92.9257C104.232 80.4962 113.391 71.4925 113.391 60.3929C113.391 50.5197 106.131 42.3149 96.577 40.6278ZM24.2321 61.6992H21.0695C14.9746 61.6992 10.0075 56.8966 10.0075 50.9944C10.0075 41.0414 19.8947 38.7904 26.3985 39.1899C26.1635 32.8177 27.0423 14.7068 45.2519 14.7068C49.796 14.7068 53.3064 15.8816 56.0131 17.7331C47.4464 22.0658 41.4643 30.6372 40.9192 40.6278C31.4173 42.3102 23.546 50.6231 24.2321 61.6992ZM92.9257 71.0977H44.5658C38.4708 71.0977 33.5037 66.2951 33.5037 60.3929C33.5037 50.4399 43.391 48.1889 49.8947 48.5884C49.6598 42.2162 50.5385 24.1053 68.7481 24.1053C86.469 24.1053 88.6212 41.8261 87.6015 48.5837C94.6926 48.0902 103.992 50.6372 103.992 60.3929C103.992 66.2951 99.0254 71.0977 92.9257 71.0977ZM26.8402 108.692L20.2143 102.066L37.0846 85.1955L43.7105 91.8214L26.8402 108.692ZM66.9859 91.8214L60.3599 85.1955L43.4896 102.066L50.1156 108.692L66.9859 91.8214ZM89.8947 91.8214L83.2688 85.1955L66.3985 102.066L73.0244 108.692L89.8947 91.8214Z" fill="white"/>
</g>
<defs>
<clipPath id="clip0">
<rect width="112.782" height="112.782" fill="white" transform="translate(0.609009 0.609039)"/>
</clipPath>
</defs>
</svg>
